<svg width="48" height="48" viewBox="0 0 48 48" fill="none" xmlns="http://www.w3.org/2000/svg">
<g clip-path="url(#clip0_104_16998)">
<rect width="48" height="48" rx="24" fill="#192130"/>
<rect width="48" height="48" rx="24" fill="#192130"/>
<rect width="48" height="48" rx="24" fill="#192130"/>
<g clip-path="url(#clip1_104_16998)">
<path d="M21 31.0001C16 32.5001 16 28.5001 14 28.0001M28 34.0001V30.1301C28.0375 29.6532 27.9731 29.1739 27.811 28.7239C27.6489 28.2738 27.3929 27.8635 27.06 27.5201C30.2 27.1701 33.5 25.9801 33.5 20.5201C33.4997 19.1239 32.9627 17.7813 32 16.7701C32.4559 15.5486 32.4236 14.1984 31.91 13.0001C31.91 13.0001 30.73 12.6501 28 14.4801C25.708 13.8589 23.292 13.8589 21 14.4801C18.27 12.6501 17.09 13.0001 17.09 13.0001C16.5764 14.1984 16.5441 15.5486 17 16.7701C16.0301 17.7888 15.4925 19.1435 15.5 20.5501C15.5 25.9701 18.8 27.1601 21.94 27.5501C21.611 27.89 21.3573 28.2955 21.1953 28.74C21.0334 29.1845 20.9668 29.6581 21 30.1301V34.0001" stroke="#C0C2C4" stroke-width="2" stroke-linecap="round" stroke-linejoin="round"/>
</g>
</g>
<defs>
<clipPath id="clip0_104_16998">
<rect width="48" height="48" rx="24" fill="white"/>
</clipPath>
<clipPath id="clip1_104_16998">
<rect width="24" height="24" fill="white" transform="translate(12 12)"/>
</clipPath>
</defs>
</svg>
