<svg width="48" height="48" viewBox="0 0 48 48" fill="none" xmlns="http://www.w3.org/2000/svg">
<rect width="48" height="48" rx="24" fill="#192130"/>
<g clip-path="url(#clip0_104_16992)">
<path d="M17.5866 19.7209H12.7686C12.5547 19.7209 12.3815 19.8943 12.3815 20.108V35.5863C12.3815 35.8002 12.5547 35.9734 12.7686 35.9734H17.5866C17.8004 35.9734 17.9737 35.8002 17.9737 35.5863V20.108C17.9737 19.8943 17.8004 19.7209 17.5866 19.7209Z" fill="#C0C2C4"/>
<path d="M15.1793 12.0264C13.4262 12.0264 12 13.451 12 15.2022C12 16.9541 13.4262 18.3793 15.1793 18.3793C16.931 18.3793 18.3561 16.954 18.3561 15.2022C18.3561 13.451 16.931 12.0264 15.1793 12.0264Z" fill="#C0C2C4"/>
<path d="M29.8416 19.3363C27.9065 19.3363 26.476 20.1682 25.6084 21.1134V20.1081C25.6084 19.8943 25.4351 19.721 25.2213 19.721H20.6072C20.3934 19.721 20.2201 19.8943 20.2201 20.1081V35.5864C20.2201 35.8002 20.3934 35.9735 20.6072 35.9735H25.4147C25.6285 35.9735 25.8018 35.8002 25.8018 35.5864V27.9282C25.8018 25.3476 26.5028 24.3422 28.3017 24.3422C30.2608 24.3422 30.4165 25.954 30.4165 28.061V35.5865C30.4165 35.8003 30.5898 35.9736 30.8036 35.9736H35.6129C35.8268 35.9736 36 35.8003 36 35.5865V27.0964C36 23.2591 35.2683 19.3363 29.8416 19.3363Z" fill="#C0C2C4"/>
</g>
<defs>
<clipPath id="clip0_104_16992">
<rect width="24" height="24" fill="white" transform="translate(12 12)"/>
</clipPath>
</defs>
</svg>
