<svg width="26" height="26" viewBox="0 0 26 26" fill="none" xmlns="http://www.w3.org/2000/svg">
<path d="M3.37606 1.01824C2.7252 0.367374 1.66991 0.367374 1.01905 1.01824C0.368163 1.66911 0.368163 2.72439 1.01905 3.37526L10.6436 12.9998L1.01915 22.6243C0.368263 23.2751 0.368263 24.3305 1.01915 24.9813C1.67001 25.6321 2.7253 25.6321 3.37616 24.9813L13.0006 15.3568L22.6251 24.9813C23.276 25.6321 24.3313 25.6321 24.9821 24.9813C25.633 24.3305 25.633 23.2751 24.9821 22.6243L15.3576 12.9998L24.9821 3.37526C25.6331 2.72439 25.6331 1.66911 24.9821 1.01824C24.3313 0.367374 23.2761 0.367374 22.6251 1.01824L13.0006 10.6428L3.37606 1.01824Z" fill="white"/>
</svg>
